<?xml version="1.0" standalone="no"?>
<!DOCTYPE svg PUBLIC "-//W3C//DTD SVG 20010904//EN"
 "http://www.w3.org/TR/2001/REC-SVG-20010904/DTD/svg10.dtd">
<svg version="1.0" xmlns="http://www.w3.org/2000/svg"
 width="1536.000000pt" height="1024.000000pt" viewBox="0 0 1536.000000 1024.000000"
 preserveAspectRatio="xMidYMid meet">

<g transform="translate(0.000000,1024.000000) scale(0.100000,-0.100000)"
fill="#000000" stroke="none">
<path d="M8187 7198 c-13 -18 -68 -109 -122 -203 -54 -93 -109 -186 -122 -205
-12 -19 -23 -43 -23 -52 0 -32 37 -58 80 -58 38 0 51 10 240 180 196 177 220
203 220 235 0 42 -142 135 -207 135 -36 0 -46 -5 -66 -32z"/>
<path d="M5130 7110 c-39 -39 -20 -79 47 -100 55 -18 80 -46 92 -102 9 -42 4
-96 -34 -366 -24 -174 -72 -512 -105 -751 -34 -239 -67 -446 -75 -462 -18 -33
-61 -65 -101 -74 -82 -18 -109 -48 -84 -94 10 -20 19 -21 173 -22 89 -1 225
-3 302 -4 77 -2 148 1 158 6 20 11 24 71 4 87 -7 6 -44 18 -83 27 -125 28
-147 75 -125 257 6 51 31 260 56 463 53 434 73 597 81 645 6 33 7 31 40 -55
38 -99 176 -449 405 -1027 83 -207 156 -382 165 -389 8 -6 36 -14 62 -17 36
-3 52 0 69 14 12 11 48 82 81 159 33 77 150 349 260 605 109 256 223 524 252
595 54 133 70 163 70 132 0 -10 11 -156 24 -325 53 -660 69 -909 62 -944 -10
-53 -51 -92 -118 -112 -83 -24 -107 -56 -74 -101 12 -17 35 -18 399 -18 428
-1 420 -2 415 62 -3 35 -5 36 -66 53 -131 35 -146 63 -167 310 -37 425 -95
1207 -95 1272 0 110 32 149 146 177 27 6 57 19 67 27 23 21 22 69 -2 82 -12 6
-121 10 -285 10 -230 0 -267 -2 -281 -16 -17 -18 -17 -16 -210 -444 -73 -162
-168 -369 -210 -460 -42 -91 -103 -228 -137 -305 -33 -77 -64 -144 -68 -148
-4 -5 -11 4 -14 19 -6 23 -177 440 -361 879 -35 83 -90 215 -124 295 -33 80
-70 153 -82 163 -19 15 -48 17 -265 17 -231 0 -245 -1 -264 -20z"/>
<path d="M8040 6525 c-179 -36 -337 -144 -441 -304 -88 -133 -128 -321 -109
-508 29 -277 185 -477 435 -556 140 -44 400 -48 545 -7 228 65 388 224 462
460 19 64 23 96 23 215 0 160 -13 222 -72 341 -66 136 -215 271 -357 324 -131
49 -340 64 -486 35z m264 -150 c100 -48 194 -190 236 -355 29 -116 39 -364 17
-466 -40 -186 -142 -284 -297 -284 -165 0 -290 125 -344 343 -39 154 -38 412
0 547 30 105 102 199 174 229 39 17 169 8 214 -14z"/>
<path d="M11004 6525 c-151 -34 -272 -101 -375 -205 -63 -63 -86 -96 -128
-181 -60 -124 -81 -216 -81 -363 0 -118 20 -227 54 -301 57 -124 167 -230 300
-291 174 -79 496 -86 689 -14 151 57 321 227 288 289 -22 40 -58 35 -137 -20
-154 -106 -379 -127 -531 -50 -142 72 -232 234 -233 419 l0 62 448 0 c335 0
451 3 460 12 16 16 15 143 -3 241 -34 195 -145 323 -333 384 -64 22 -100 26
-217 29 -95 2 -160 -1 -201 -11z m225 -135 c73 -21 129 -78 157 -160 19 -54
28 -149 20 -194 l-7 -36 -276 0 -275 0 7 58 c21 180 96 297 215 333 36 11 120
11 159 -1z"/>
<path d="M13013 6526 c-107 -26 -227 -103 -278 -178 -35 -51 -65 -149 -65
-211 0 -109 42 -201 128 -278 64 -58 130 -92 324 -169 87 -34 176 -75 198 -91
130 -95 85 -276 -76 -309 -142 -30 -305 34 -369 145 -14 23 -32 76 -41 116 -8
40 -20 79 -26 86 -6 7 -32 13 -59 13 -54 0 -89 -24 -89 -60 0 -43 33 -316 40
-335 12 -30 136 -93 222 -112 105 -23 334 -23 412 1 251 75 396 277 356 497
-16 87 -31 120 -82 174 -71 78 -171 138 -320 191 -228 83 -308 144 -308 236 0
45 31 99 69 121 44 27 134 37 201 23 108 -23 172 -85 205 -200 21 -71 36 -86
89 -86 51 0 79 18 79 52 0 30 -29 163 -52 237 -14 49 -21 57 -67 83 -82 46
-190 68 -323 67 -64 0 -139 -6 -168 -13z"/>
<path d="M8784 6496 c-13 -21 -14 -29 -2 -52 11 -24 22 -29 79 -39 70 -11 110
-31 134 -68 8 -13 59 -127 114 -253 54 -126 149 -346 211 -489 62 -143 128
-296 147 -340 49 -116 54 -119 171 -123 142 -4 154 -1 181 56 47 95 202 435
356 782 106 239 167 366 188 387 20 21 50 38 86 49 31 9 59 21 63 27 12 18 9
62 -4 75 -16 16 -530 17 -559 2 -13 -7 -19 -21 -19 -45 0 -36 20 -55 60 -55
32 0 100 -39 109 -62 19 -52 3 -93 -268 -718 -27 -63 -54 -116 -59 -118 -5 -1
-82 180 -171 403 -117 292 -161 415 -159 438 3 30 8 34 63 52 33 11 66 24 73
28 19 13 15 65 -7 77 -13 6 -155 10 -395 10 l-376 0 -16 -24z"/>
<path d="M11873 6510 c-26 -11 -41 -56 -26 -79 6 -9 38 -22 73 -29 125 -25
120 -1 120 -577 0 -406 -2 -480 -15 -505 -17 -33 -49 -52 -115 -70 -58 -15
-70 -26 -70 -61 0 -58 9 -59 400 -55 326 4 355 5 367 22 7 10 13 24 13 31 0
19 -45 63 -64 63 -30 0 -92 31 -106 53 -13 19 -16 113 -20 604 -4 459 -8 585
-18 595 -16 16 -503 23 -539 8z"/>
</g>
</svg>
